<svg xmlns="http://www.w3.org/2000/svg" xmlns:xlink="http://www.w3.org/1999/xlink" viewBox="0 0 1800 1500" role="img" aria-label="RUNPUY Precision Motion iconography system">
  <defs>
    <symbol id="home" viewBox="0 0 24 24"><path d="M3.5 10.5 12 3l8.5 7.5v9a1.5 1.5 0 0 1-1.5 1.5h-5v-6H10v6H5a1.5 1.5 0 0 1-1.5-1.5z"/></symbol>
    <symbol id="workout" viewBox="0 0 24 24"><path d="M4 9v6M7 7v10M17 7v10M20 9v6M7 12h10"/></symbol>
    <symbol id="progress" viewBox="0 0 24 24"><path d="M5 20V12M12 20V5M19 20V9"/></symbol>
    <symbol id="coach" viewBox="0 0 24 24"><path d="M9 5a3 3 0 0 1 6 0v1a4.5 4.5 0 0 1 3.5 4.4v3.2A4.5 4.5 0 0 1 14 18h-1l-2.5 3v-3H10a4.5 4.5 0 0 1-4.5-4.4v-3.2A4.5 4.5 0 0 1 9 6zM9 12h.01M12 12h.01M15 12h.01"/></symbol>
    <symbol id="profile" viewBox="0 0 24 24"><circle cx="12" cy="8" r="4"/><path d="M4.5 21a7.5 7.5 0 0 1 15 0"/></symbol>
    <symbol id="heart" viewBox="0 0 24 24"><path d="M20.8 5.8a5.3 5.3 0 0 0-7.5 0L12 7.1l-1.3-1.3a5.3 5.3 0 0 0-7.5 7.5L12 22l8.8-8.7a5.3 5.3 0 0 0 0-7.5z"/><path d="M5.5 12h3l1.5-3 3 7 1.5-4H19"/></symbol>
    <symbol id="sleep" viewBox="0 0 24 24"><path d="M20.5 15.5A9 9 0 0 1 8.5 3.5a9 9 0 1 0 12 12z"/><path d="M15 5h4l-4 4h4"/></symbol>
    <symbol id="recovery" viewBox="0 0 24 24"><path d="M12 3v4M12 17v4M3 12h4M17 12h4M5.6 5.6l2.8 2.8M15.6 15.6l2.8 2.8M18.4 5.6l-2.8 2.8M8.4 15.6l-2.8 2.8"/><circle cx="12" cy="12" r="4"/></symbol>
    <symbol id="readiness" viewBox="0 0 24 24"><path d="M20.5 4.5C13 4 7 7 5 13c-1 3 1 6 4 6 6 0 9-6 11.5-14.5z"/><path d="M6 18c3-4 6-6 11-9"/></symbol>
    <symbol id="steps" viewBox="0 0 24 24"><path d="M8 3c2 1 3 3 2 5l-2 5c-.8 2-3 2.8-4.7 1.5C1.8 13.3 2 11 3.5 9.8L5 8.5V4.8C5 3.4 6.6 2.6 8 3zM16 10c2 1 3 3 2 5l-2 5c-.8 2-3 2.8-4.7 1.5-1.5-1.2-1.3-3.5.2-4.7l1.5-1.3v-3.7c0-1.4 1.6-2.2 3-1.8z"/></symbol>
    <symbol id="calories" viewBox="0 0 24 24"><path d="M13 2c1 5-4 6-2 10 1-2 3-3 5-4 3 3 4 6 3 9-1 3-3.8 5-7 5-4 0-7-3-7-7 0-5 4-8 8-13z"/></symbol>
    <symbol id="timer" viewBox="0 0 24 24"><circle cx="12" cy="13" r="8"/><path d="M12 9v4l3 2M9 2h6M12 2v3"/></symbol>
    <style>
      .icon{fill:none;stroke:currentColor;stroke-width:1.8;stroke-linecap:round;stroke-linejoin:round}
      .label{font-family:Manrope,Arial,sans-serif;font-size:22px;fill:#52616A}
      .name{font-family:Manrope,Arial,sans-serif;font-size:25px;font-weight:700;fill:#0D1417}
    </style>
  </defs>
  <rect width="1800" height="1500" fill="#F7F7F4"/>
  <text x="80" y="92" fill="#0D1417" font-family="Manrope,Arial,sans-serif" font-size="52" font-weight="850">RUNPUY ICONOGRAPHY — PRECISION MOTION</text>
  <text x="82" y="140" fill="#52616A" font-family="Manrope,Arial,sans-serif" font-size="22" letter-spacing="3">24 PX GRID • 1.8 PX STROKE • ROUND TERMINALS • ANGULAR ACCENTS</text>

  <rect x="80" y="205" width="1640" height="360" rx="42" fill="#FFFFFF" stroke="#D9DCDE" stroke-width="2"/>
  <text x="124" y="260" fill="#0E4D3C" font-family="Manrope,Arial,sans-serif" font-size="23" font-weight="800" letter-spacing="3">PRIMARY NAVIGATION</text>
  <g class="icon" color="#35454D">
    <use xlink:href="#home" x="150" y="325" width="74" height="74"/><use xlink:href="#workout" x="455" y="325" width="74" height="74"/><use xlink:href="#progress" x="760" y="325" width="74" height="74"/><use xlink:href="#coach" x="1065" y="325" width="74" height="74"/><use xlink:href="#profile" x="1370" y="325" width="74" height="74"/>
  </g>
  <text class="name" x="150" y="450">Home</text><text class="name" x="455" y="450">Workout</text><text class="name" x="760" y="450">Progress</text><text class="name" x="1065" y="450">AI Coach</text><text class="name" x="1370" y="450">Profile</text>
  <g>
    <rect x="125" y="484" width="122" height="48" rx="24" fill="#E2F5EE"/><use xlink:href="#home" x="141" y="492" width="32" height="32" class="icon" color="#0E4D3C"/><text x="183" y="516" fill="#0E4D3C" font-family="Manrope,Arial,sans-serif" font-size="17" font-weight="800">ACTIVE</text>
    <rect x="430" y="484" width="132" height="48" rx="24" fill="#EEF1F2"/><use xlink:href="#workout" x="446" y="492" width="32" height="32" class="icon" color="#52616A"/><text x="488" y="516" fill="#52616A" font-family="Manrope,Arial,sans-serif" font-size="17" font-weight="800">DEFAULT</text>
  </g>

  <rect x="80" y="610" width="1640" height="520" rx="42" fill="#FFFFFF" stroke="#D9DCDE" stroke-width="2"/>
  <text x="124" y="668" fill="#0E4D3C" font-family="Manrope,Arial,sans-serif" font-size="23" font-weight="800" letter-spacing="3">HEALTH &amp; PERFORMANCE</text>
  <g>
    <g transform="translate(130 730)"><rect width="185" height="170" rx="32" fill="#FFF2F1"/><use xlink:href="#heart" x="52" y="28" width="80" height="80" class="icon" color="#C84C4C"/><text class="name" x="55" y="142">Heart</text></g>
    <g transform="translate(355 730)"><rect width="185" height="170" rx="32" fill="#EEF4FF"/><use xlink:href="#sleep" x="52" y="28" width="80" height="80" class="icon" color="#3767C8"/><text class="name" x="58" y="142">Sleep</text></g>
    <g transform="translate(580 730)"><rect width="185" height="170" rx="32" fill="#FFF7E8"/><use xlink:href="#recovery" x="52" y="28" width="80" height="80" class="icon" color="#B66E16"/><text class="name" x="35" y="142">Recovery</text></g>
    <g transform="translate(805 730)"><rect width="185" height="170" rx="32" fill="#E2F5EE"/><use xlink:href="#readiness" x="52" y="28" width="80" height="80" class="icon" color="#0E8F6A"/><text class="name" x="34" y="142">Readiness</text></g>
    <g transform="translate(1030 730)"><rect width="185" height="170" rx="32" fill="#EEF1F2"/><use xlink:href="#steps" x="52" y="28" width="80" height="80" class="icon" color="#35454D"/><text class="name" x="55" y="142">Steps</text></g>
    <g transform="translate(1255 730)"><rect width="185" height="170" rx="32" fill="#FFF0EA"/><use xlink:href="#calories" x="52" y="28" width="80" height="80" class="icon" color="#C95E2C"/><text class="name" x="39" y="142">Calories</text></g>
    <g transform="translate(1480 730)"><rect width="185" height="170" rx="32" fill="#EEF1F2"/><use xlink:href="#timer" x="52" y="28" width="80" height="80" class="icon" color="#35454D"/><text class="name" x="58" y="142">Timer</text></g>
  </g>
  <text class="label" x="130" y="970">Semantic color is reserved for health meaning.</text>
  <g class="icon" color="#0D1417"><use xlink:href="#heart" x="130" y="1015" width="50" height="50"/><use xlink:href="#sleep" x="225" y="1015" width="50" height="50"/><use xlink:href="#recovery" x="320" y="1015" width="50" height="50"/><use xlink:href="#readiness" x="415" y="1015" width="50" height="50"/><use xlink:href="#steps" x="510" y="1015" width="50" height="50"/><use xlink:href="#calories" x="605" y="1015" width="50" height="50"/><use xlink:href="#timer" x="700" y="1015" width="50" height="50"/></g>
  <text class="label" x="790" y="1050">Single-color versions remain clear for accessibility and exports.</text>

  <rect x="80" y="1175" width="1640" height="245" rx="42" fill="#0D1417"/>
  <text x="124" y="1234" fill="#65D8B4" font-family="Manrope,Arial,sans-serif" font-size="23" font-weight="800" letter-spacing="3">DARK MODE + SCALE TEST</text>
  <g class="icon" color="#F7F7F4"><use xlink:href="#home" x="150" y="1282" width="64" height="64"/><use xlink:href="#workout" x="300" y="1282" width="64" height="64"/><use xlink:href="#progress" x="450" y="1282" width="64" height="64"/><use xlink:href="#coach" x="600" y="1282" width="64" height="64"/><use xlink:href="#profile" x="750" y="1282" width="64" height="64"/></g>
  <rect x="930" y="1270" width="305" height="88" rx="44" fill="#14352F"/><use xlink:href="#readiness" x="954" y="1288" width="52" height="52" class="icon" color="#65D8B4"/><text x="1024" y="1325" fill="#F7F7F4" font-family="Manrope,Arial,sans-serif" font-size="23" font-weight="800">Ready to train</text>
  <use xlink:href="#heart" x="1325" y="1285" width="56" height="56" class="icon" color="#F7F7F4"/><use xlink:href="#heart" x="1435" y="1297" width="32" height="32" class="icon" color="#F7F7F4"/><use xlink:href="#heart" x="1525" y="1303" width="24" height="24" class="icon" color="#F7F7F4"/>
  <text x="1325" y="1384" fill="#8FA7B0" font-family="Manrope,Arial,sans-serif" font-size="18">32 px</text><text x="1435" y="1384" fill="#8FA7B0" font-family="Manrope,Arial,sans-serif" font-size="18">24 px</text><text x="1525" y="1384" fill="#8FA7B0" font-family="Manrope,Arial,sans-serif" font-size="18">20 px</text>
</svg>
